<svg xmlns="http://www.w3.org/2000/svg" xmlns:xlink="http://www.w3.org/1999/xlink" width="919.027" height="42.841" viewBox="0 0 919.027 42.841">
  <defs>
    <clipPath id="clip-path">
      <rect id="Rectangle_53" data-name="Rectangle 53" width="81.048" height="42.841" fill="#def0f9"/>
    </clipPath>
  </defs>
  <g id="line" transform="translate(-70.584 -296.528)">
    <line id="Line_12" data-name="Line 12" x1="383.027" transform="translate(71.584 321.974)" fill="none" stroke="#def0f9" stroke-linecap="round" stroke-width="2"/>
    <line id="Line_13" data-name="Line 13" x1="383.027" transform="translate(605.584 321.974)" fill="none" stroke="#def0f9" stroke-linecap="round" stroke-width="2"/>
    <g id="Group_55" data-name="Group 55" transform="translate(489.56 296.528)" clip-path="url(#clip-path)">
      <path id="Path_101" data-name="Path 101" d="M74.963,18.048c-4.91,1.922-3.63.961-3.63.961s2.563-6.3.427-6.94-6.3.854-8.008,3.737c0,0-8.113-.961-8.006,7.152l.319,2.99S44.749,27.015,44,22.318c0,0-1.6-4.91,1.334-4.27s3.576,1.815,3.576,1.815,6.406-3.843.428-11.743c-2.243-2.776-4-.748-4-.748S43.909,1.024,40.525,0c-3.385,1.024-4.811,7.372-4.811,7.372s-1.763-2.028-4,.748c-5.979,7.9.427,11.743.427,11.743s.642-1.175,3.578-1.815,1.334,4.27,1.334,4.27c-.748,4.7-12.064,3.63-12.064,3.63l.319-2.99c.108-8.113-8.006-7.152-8.006-7.152-1.709-2.884-5.873-4.378-8.008-3.737s.427,6.94.427,6.94,1.281.961-3.63-.961S0,17.3,0,17.3L12.064,33.1l3.184,8.066a2.683,2.683,0,0,0,4.2,1.061c2.909-2.291,8.924-5.092,21.073-5.438,12.148.346,18.164,3.148,21.073,5.438a2.681,2.681,0,0,0,4.2-1.061L68.983,33.1,81.048,17.3s-1.173-1.175-6.085.748" transform="translate(0 -0.001)" fill="#def0f9"/>
    </g>
  </g>
</svg>
